<?xml version="1.0" encoding="utf-8"?>
<!-- Generator: Adobe Illustrator 16.0.0, SVG Export Plug-In . SVG Version: 6.00 Build 0)  -->
<!DOCTYPE svg PUBLIC "-//W3C//DTD SVG 1.1//EN" "http://www.w3.org/Graphics/SVG/1.1/DTD/svg11.dtd">
<svg version="1.1" id="Layer_1" xmlns="http://www.w3.org/2000/svg" xmlns:xlink="http://www.w3.org/1999/xlink" x="0px" y="0px"
	 width="47.75px" height="65px" viewBox="0 0 47.75 65" enable-background="new 0 0 47.75 65" xml:space="preserve">
<g>
	<path fill="#058CBC" d="M23.742,4.852c0.994,1.173,2.296,2.571,3.757,4.141c6.592,7.082,17.623,18.935,17.623,29.182
		c0,11.835-9.588,21.463-21.372,21.463c-5.713,0-11.084-2.232-15.125-6.288c-4.039-4.053-6.263-9.441-6.263-15.175
		c0-10.247,11.032-22.1,17.623-29.182C21.446,7.423,22.748,6.025,23.742,4.852 M23.742,2c-0.438,0-0.877,0.187-1.176,0.562
		C17.786,8.631,0,24.12,0,38.175c0,6.578,2.652,12.527,6.952,16.842C11.253,59.333,17.186,62,23.75,62
		c13.111,0,23.734-10.669,23.734-23.825c0-14.055-17.786-29.544-22.566-35.613C24.619,2.187,24.18,2,23.742,2"/>
	<path fill="#058CBC" d="M22.568,50.898c-3.02,0-5.859-1.18-7.994-3.323c-2.132-2.139-3.307-4.984-3.307-8.01
		c0-0.652,0.529-1.181,1.181-1.181c0.653,0,1.182,0.528,1.182,1.181c0,2.396,0.929,4.648,2.617,6.343
		c1.689,1.695,3.934,2.628,6.321,2.628c0.652,0,1.181,0.529,1.181,1.182C23.749,50.369,23.22,50.898,22.568,50.898"/>
</g>
</svg>
